<svg width="127" height="127" viewBox="0 0 127 127" fill="none" xmlns="http://www.w3.org/2000/svg">
<path fill-rule="evenodd" clip-rule="evenodd" d="M25 0C11.1929 0 0 11.1929 0 25V102C0 115.807 11.1929 127 25 127H102C115.134 127 125.902 116.872 126.921 104H71.5C66.8056 104 63 100.194 63 95.5C63 90.8056 66.8056 87 71.5 87H127V72H52.5C47.8056 72 44 68.1944 44 63.5C44 58.8056 47.8056 55 52.5 55H127V41H71.5C66.8056 41 63 37.1944 63 32.5C63 27.8056 66.8056 24 71.5 24H126.98C126.455 10.6565 115.472 0 102 0H25Z" fill="white"/>
</svg>
