<svg width="97" height="14" viewBox="0 0 97 14" fill="none" xmlns="http://www.w3.org/2000/svg">
<path d="M0 13.0681V-5.95047e-10H8.84438V2.88516H3.19988V5.05152H8.01957V7.87677H3.19988V10.1729H8.84438V13.0681H0Z" transform="translate(0 0.118225)" fill="white"/>
<path d="M0 2.82525V1.33291e-07H5.9625V2.82525H0Z" transform="translate(10.6827 6.35779)" fill="white"/>
<path d="M4.93917 13.2961C4.26764 13.3189 3.59881 13.2001 2.97579 12.9473C2.35277 12.6945 1.78937 12.3134 1.32192 11.8286C-0.0494609 10.4509 0.000226766 8.61397 0.000226766 6.65725C0.000226766 4.70054 0.000226622 2.85364 1.32192 1.47596C1.78937 0.991087 2.35277 0.609991 2.97579 0.357227C3.59881 0.104464 4.26764 -0.0143576 4.93917 0.00842015C6.15537 -0.064535 7.35241 0.338767 8.27891 1.13364C9.2054 1.9285 9.78928 3.0531 9.90792 4.27126H6.61861C6.56455 3.87268 6.36457 3.50864 6.05771 3.25021C5.75086 2.99178 5.35914 2.85751 4.95904 2.87361C4.7209 2.86217 4.48332 2.90572 4.26454 3.0009C4.04576 3.09609 3.8516 3.24038 3.69698 3.42269C3.39885 3.81203 3.2001 4.27126 3.2001 6.65725C3.2001 9.04325 3.39885 9.50248 3.69698 9.88184C3.8516 10.0642 4.04576 10.2084 4.26454 10.3036C4.48332 10.3988 4.7209 10.4424 4.95904 10.4309C5.35765 10.4473 5.74811 10.3144 6.05474 10.058C6.36136 9.80164 6.5623 9.44001 6.61861 9.04325H9.86817C9.74964 10.2533 9.17105 11.3708 8.25288 12.163C7.33472 12.9552 6.14776 13.3611 4.93917 13.2961V13.2961Z" transform="translate(18.4636)" fill="white"/>
<path d="M6.59851 13.0681V7.87677H3.19988V13.0681H7.58172e-07V-5.95047e-10H3.19988V4.99162H6.59851V-5.95047e-10H9.79838V13.0681H6.59851Z" transform="translate(30.0112 0.118225)" fill="white"/>
<path d="M7.58172e-07 13.0681V-5.95047e-10H8.84438V2.88516H3.19988V5.05152H8.01957V7.87677H3.19988V10.1729H8.84438V13.0681H7.58172e-07Z" transform="translate(42.4332 0.118225)" fill="white"/>
<path d="M4.93916 13.2961C4.26764 13.3189 3.59881 13.2001 2.97579 12.9473C2.35277 12.6945 1.78937 12.3134 1.32191 11.8286C-0.0494628 10.4509 0.000226868 8.61397 0.000226868 6.65725C0.000226868 4.70054 -0.0494628 2.85364 1.32191 1.47596C1.78937 0.991087 2.35277 0.609991 2.97579 0.357227C3.59881 0.104464 4.26764 -0.0143576 4.93916 0.00842014C6.15537 -0.064535 7.35241 0.338767 8.27891 1.13364C9.2054 1.9285 9.78928 3.0531 9.90792 4.27126H6.61861C6.56455 3.87268 6.36457 3.50864 6.05771 3.25021C5.75086 2.99178 5.35914 2.85751 4.95904 2.87361C4.7209 2.86217 4.48332 2.90572 4.26454 3.0009C4.04576 3.09609 3.8516 3.24038 3.69698 3.42269C3.39885 3.81203 3.2001 4.27126 3.2001 6.65725C3.2001 9.04325 3.39885 9.50248 3.69698 9.88184C3.8516 10.0642 4.04576 10.2084 4.26454 10.3036C4.48332 10.3988 4.7209 10.4424 4.95904 10.4309C5.35765 10.4473 5.74811 10.3144 6.05474 10.058C6.36136 9.80164 6.5623 9.44001 6.61861 9.04325H9.86817C9.74964 10.2533 9.17104 11.3708 8.25288 12.163C7.33472 12.9552 6.14776 13.3611 4.93916 13.2961Z" transform="translate(53.1157)" fill="white"/>
<path d="M7.25438 13.0681L4.27313 7.70706L3.16013 8.97493V13.0681H-3.03269e-07V-5.95047e-10H3.16013V4.62224L6.88669 -5.95047e-10H10.8617L6.42957 5.29111L11.0108 13.0681H7.25438Z" transform="translate(64.6633 0.118225)" fill="white"/>
<path d="M-3.33595e-06 13.0681V-5.95047e-10H3.19987V13.0681H-3.33595e-06Z" transform="translate(81.0105 0.118225)" fill="white"/>
<path d="M7.3637 13.0681L3.18994 6.49909V13.0681H-6.06537e-07V-5.95047e-10H2.79244L6.95625 6.56897V-5.95047e-10H10.1561V13.0681H7.3637Z" transform="translate(86.8439 0.118225)" fill="white"/>
</svg>
