<svg width="431" height="127" viewBox="0 0 431 127" fill="none" xmlns="http://www.w3.org/2000/svg">
<path d="M38.0924 27.1076C38.0924 27.7131 38.0459 28.5748 37.9528 29.6926H8.72078C9.2324 32.4407 10.558 34.6298 12.6975 36.26C14.8835 37.8436 17.5811 38.6354 20.7903 38.6354C24.8833 38.6354 28.2553 37.2846 30.9065 34.5832L35.5808 39.9628C33.9064 41.9656 31.7902 43.4793 29.2321 44.504C26.674 45.5287 23.7903 46.0411 20.581 46.0411C16.4881 46.0411 12.8835 45.226 9.76728 43.5958C6.65105 41.9656 4.23249 39.7066 2.51159 36.8189C0.837195 33.8845 0 30.5776 0 26.898C0 23.2651 0.81394 20.0047 2.44182 17.1169C4.11621 14.1826 6.4185 11.9003 9.34868 10.2702C12.2789 8.63998 15.5811 7.82488 19.2555 7.82488C22.8833 7.82488 26.1158 8.63998 28.953 10.2702C31.8367 11.8538 34.0692 14.1127 35.6506 17.0471C37.2784 19.9348 38.0924 23.2883 38.0924 27.1076ZM19.2555 14.8114C16.4648 14.8114 14.0928 15.6498 12.1393 17.3265C10.2324 18.9567 9.06961 21.1458 8.65102 23.8938H29.7902C29.4181 21.1924 28.2786 19.0033 26.3716 17.3265C24.4647 15.6498 22.0926 14.8114 19.2555 14.8114Z" transform="translate(155 8)" fill="black"/>
<path d="M80.671 8.24407L64.6946 45.552H55.6947L39.7183 8.24407H48.7879L60.3691 35.9106L72.2991 8.24407H80.671Z" transform="translate(155 8)" fill="black"/>
<path d="M120.122 27.1076C120.122 27.7131 120.076 28.5748 119.983 29.6926H90.7506C91.2623 32.4407 92.5878 34.6298 94.7273 36.26C96.9133 37.8436 99.611 38.6354 102.82 38.6354C106.913 38.6354 110.285 37.2846 112.936 34.5832L117.611 39.9628C115.936 41.9656 113.82 43.4793 111.262 44.504C108.704 45.5287 105.82 46.0411 102.611 46.0411C98.518 46.0411 94.9134 45.226 91.7971 43.5958C88.6809 41.9656 86.2623 39.7066 84.5414 36.8189C82.8671 33.8845 82.0299 30.5776 82.0299 26.898C82.0299 23.2651 82.8438 20.0047 84.4717 17.1169C86.1461 14.1826 88.4484 11.9003 91.3785 10.2702C94.3087 8.63998 97.611 7.82488 101.285 7.82488C104.913 7.82488 108.146 8.63998 110.983 10.2702C113.867 11.8538 116.099 14.1127 117.68 17.0471C119.308 19.9348 120.122 23.2883 120.122 27.1076ZM101.285 14.8114C98.4947 14.8114 96.1226 15.6498 94.1692 17.3265C92.2622 18.9567 91.0995 21.1458 90.6809 23.8938H111.82C111.448 21.1924 110.308 19.0033 108.402 17.3265C106.495 15.6498 104.123 14.8114 101.285 14.8114Z" transform="translate(155 8)" fill="black"/>
<path d="M149.638 7.82488C154.336 7.82488 158.103 9.1989 160.94 11.9469C163.778 14.6949 165.196 18.7704 165.196 24.1733V45.552H156.475V25.2911C156.475 22.0308 155.708 19.5855 154.173 17.9553C152.638 16.2786 150.452 15.4402 147.615 15.4402C144.406 15.4402 141.871 16.4183 140.011 18.3745C138.15 20.2841 137.22 23.0555 137.22 26.6884V45.552H128.499V8.24407H136.801V13.0648C138.243 11.3414 140.057 10.0373 142.243 9.15232C144.429 8.26736 146.894 7.82488 149.638 7.82488Z" transform="translate(155 8)" fill="black"/>
<path d="M198.654 43.5259C197.631 44.3643 196.375 44.9931 194.887 45.4123C193.445 45.8315 191.91 46.0411 190.282 46.0411C186.189 46.0411 183.026 44.9698 180.794 42.8273C178.561 40.6847 177.445 37.5641 177.445 33.4654V15.51H171.306V8.52353H177.445V0H186.166V8.52353H196.142V15.51H186.166V33.2558C186.166 35.0722 186.608 36.4696 187.491 37.4477C188.375 38.3792 189.654 38.845 191.329 38.845C193.282 38.845 194.91 38.3326 196.212 37.3079L198.654 43.5259Z" transform="translate(155 8)" fill="black"/>
<path d="M20.1624 54.4249C16.302 54.4249 12.837 53.6098 9.76728 51.9796C6.69756 50.3494 4.30225 48.0904 2.58135 45.2027C0.860451 42.2683 0 38.9614 0 35.2818C0 31.6023 0.860451 28.3186 2.58135 25.4309C4.30225 22.5431 6.67431 20.2841 9.69751 18.654C12.7672 17.0238 16.2555 16.2087 20.1624 16.2087C23.8368 16.2087 27.0461 16.9539 29.7902 18.4444C32.5808 19.9348 34.6738 22.0774 36.0692 24.872L29.3716 28.7844C28.3018 27.0611 26.953 25.7802 25.3252 24.9418C23.7438 24.0569 21.9996 23.6144 20.0927 23.6144C16.8369 23.6144 14.1393 24.6856 11.9998 26.8282C9.8603 28.9241 8.79055 31.742 8.79055 35.2818C8.79055 38.8217 9.83704 41.6628 11.93 43.8054C14.0695 45.9013 16.7904 46.9493 20.0927 46.9493C21.9996 46.9493 23.7438 46.5301 25.3252 45.6917C26.953 44.8068 28.3018 43.5026 29.3716 41.7793L36.0692 45.6917C34.6273 48.4863 32.5111 50.6521 29.7204 52.1892C26.9763 53.6796 23.7903 54.4249 20.1624 54.4249Z" transform="translate(155 64)" fill="black"/>
<path d="M64.4062 16.2087C69.1038 16.2087 72.8712 17.5827 75.7084 20.3307C78.5455 23.0787 79.9641 27.1542 79.9641 32.5571V53.9358H71.2433V33.6749C71.2433 30.4146 70.4759 27.9693 68.9411 26.3391C67.4062 24.6624 65.2202 23.824 62.383 23.824C59.1738 23.824 56.6389 24.8021 54.7785 26.7583C52.9181 28.6679 51.9879 31.4393 51.9879 35.0722V53.9358H43.2671V2.09595H51.9879V20.9595C53.4297 19.4225 55.1971 18.2581 57.2901 17.4663C59.4296 16.6279 61.8016 16.2087 64.4062 16.2087Z" transform="translate(155 64)" fill="black"/>
<path d="M126.39 35.4914C126.39 36.0969 126.344 36.9586 126.251 38.0764H97.0187C97.5303 40.8245 98.8559 43.0136 100.995 44.6438C103.181 46.2274 105.879 47.0192 109.088 47.0192C113.181 47.0192 116.553 45.6684 119.204 42.967L123.879 48.3466C122.204 50.3494 120.088 51.8631 117.53 52.8878C114.972 53.9125 112.088 54.4249 108.879 54.4249C104.786 54.4249 101.181 53.6098 98.0652 51.9796C94.949 50.3494 92.5304 48.0904 90.8095 45.2027C89.1351 42.2683 88.2979 38.9614 88.2979 35.2818C88.2979 31.6489 89.1119 28.3885 90.7397 25.5007C92.4141 22.5664 94.7164 20.2841 97.6466 18.654C100.577 17.0238 103.879 16.2087 107.553 16.2087C111.181 16.2087 114.414 17.0238 117.251 18.654C120.135 20.2376 122.367 22.4965 123.948 25.4309C125.576 28.3186 126.39 31.6721 126.39 35.4914ZM107.553 23.1952C104.763 23.1952 102.391 24.0336 100.437 25.7103C98.5303 27.3405 97.3675 29.5296 96.9489 32.2776H118.088C117.716 29.5762 116.577 27.3871 114.67 25.7103C112.763 24.0336 110.391 23.1952 107.553 23.1952Z" transform="translate(155 64)" fill="black"/>
<path d="M151.86 54.4249C147.999 54.4249 144.534 53.6098 141.465 51.9796C138.395 50.3494 136 48.0904 134.279 45.2027C132.558 42.2683 131.697 38.9614 131.697 35.2818C131.697 31.6023 132.558 28.3186 134.279 25.4309C136 22.5431 138.372 20.2841 141.395 18.654C144.465 17.0238 147.953 16.2087 151.86 16.2087C155.534 16.2087 158.743 16.9539 161.488 18.4444C164.278 19.9348 166.371 22.0774 167.767 24.872L161.069 28.7844C159.999 27.0611 158.65 25.7802 157.023 24.9418C155.441 24.0569 153.697 23.6144 151.79 23.6144C148.534 23.6144 145.837 24.6856 143.697 26.8282C141.558 28.9241 140.488 31.742 140.488 35.2818C140.488 38.8217 141.534 41.6628 143.627 43.8054C145.767 45.9013 148.488 46.9493 151.79 46.9493C153.697 46.9493 155.441 46.5301 157.023 45.6917C158.65 44.8068 159.999 43.5026 161.069 41.7793L167.767 45.6917C166.325 48.4863 164.209 50.6521 161.418 52.1892C158.674 53.6796 155.488 54.4249 151.86 54.4249Z" transform="translate(155 64)" fill="black"/>
<path d="M190.174 37.9367L183.685 44.0848V53.9358H174.965V2.09595H183.685V33.3955L201.755 16.6279H212.22L196.662 32.2776L213.685 53.9358H203.08L190.174 37.9367Z" transform="translate(155 64)" fill="black"/>
<path d="M218.977 16.6279H227.698V53.9358H218.977V16.6279ZM223.372 10.4798C221.791 10.4798 220.466 9.9907 219.396 9.01259C218.326 7.9879 217.791 6.73033 217.791 5.23988C217.791 3.74942 218.326 2.51514 219.396 1.53703C220.466 0.512343 221.791 0 223.372 0C224.954 0 226.279 0.489054 227.349 1.46716C228.419 2.3987 228.954 3.5864 228.954 5.03028C228.954 6.56731 228.419 7.87146 227.349 8.94272C226.326 9.96741 225 10.4798 223.372 10.4798Z" transform="translate(155 64)" fill="black"/>
<path d="M260.283 16.2087C264.981 16.2087 268.748 17.5827 271.585 20.3307C274.422 23.0787 275.841 27.1542 275.841 32.5571V53.9358H267.12V33.6749C267.12 30.4146 266.353 27.9693 264.818 26.3391C263.283 24.6624 261.097 23.824 258.26 23.824C255.051 23.824 252.516 24.8021 250.655 26.7583C248.795 28.6679 247.865 31.4393 247.865 35.0722V53.9358H239.144V16.6279H247.446V21.4486C248.888 19.7252 250.702 18.4211 252.888 17.5361C255.074 16.6512 257.539 16.2087 260.283 16.2087Z" transform="translate(155 64)" fill="black"/>
<path fill-rule="evenodd" clip-rule="evenodd" d="M25 0C11.1929 0 0 11.1929 0 25V102C0 115.807 11.1929 127 25 127H102C115.134 127 125.902 116.872 126.921 104H71.5C66.8056 104 63 100.194 63 95.5C63 90.8056 66.8056 87 71.5 87H127V72H52.5C47.8056 72 44 68.1944 44 63.5C44 58.8056 47.8056 55 52.5 55H127V41H71.5C66.8056 41 63 37.1944 63 32.5C63 27.8056 66.8056 24 71.5 24H126.98C126.455 10.6565 115.472 0 102 0H25Z" fill="#573796"/>
</svg>
