<svg xmlns="http://www.w3.org/2000/svg" viewBox="0 0 97.61 13.31"><defs><style>.cls-1{isolation:isolate;}.cls-2{fill:#34495e;}</style></defs><title>Asset 2</title><g id="Layer_2" data-name="Layer 2"><g id="Layer_1-2" data-name="Layer 1"><g class="cls-1"><path class="cls-2" d="M0,13.2V.11H8.9V3H3.22V5.17H8.07V8H3.22v2.3H8.9V13.2Z"/><path class="cls-2" d="M10.75,9.19V6.36h6V9.19Z"/><path class="cls-2" d="M23.55,13.31a4.84,4.84,0,0,1-3.64-1.47c-1.38-1.38-1.33-3.22-1.33-5.18s0-3.81,1.33-5.19A4.84,4.84,0,0,1,23.55,0a4.74,4.74,0,0,1,5,4.27H25.24a1.62,1.62,0,0,0-1.67-1.4,1.57,1.57,0,0,0-1.27.55c-.3.39-.5.85-.5,3.24s.2,2.85.5,3.23a1.57,1.57,0,0,0,1.27.55,1.62,1.62,0,0,0,1.67-1.39h3.27A4.73,4.73,0,0,1,23.55,13.31Z"/><path class="cls-2" d="M36.84,13.2V8H33.42V13.2H30.2V.11h3.22v5h3.42v-5h3.22V13.2Z"/><path class="cls-2" d="M42.7,13.2V.11h8.9V3H45.92V5.17h4.85V8H45.92v2.3H51.6V13.2Z"/><path class="cls-2" d="M58.42,13.31a4.84,4.84,0,0,1-3.64-1.47c-1.38-1.38-1.33-3.22-1.33-5.18s-.05-3.81,1.33-5.19A4.84,4.84,0,0,1,58.42,0a4.74,4.74,0,0,1,5,4.27H60.11a1.62,1.62,0,0,0-1.67-1.4,1.57,1.57,0,0,0-1.27.55c-.3.39-.5.85-.5,3.24s.2,2.85.5,3.23a1.57,1.57,0,0,0,1.27.55,1.62,1.62,0,0,0,1.67-1.39h3.27A4.73,4.73,0,0,1,58.42,13.31Z"/><path class="cls-2" d="M72.37,13.2l-3-5.37L68.25,9.1v4.1H65.07V.11h3.18V4.74L72,.11H76l-4.46,5.3,4.61,7.79Z"/><path class="cls-2" d="M81.52,13.2V.11h3.22V13.2Z"/><path class="cls-2" d="M94.8,13.2,90.6,6.62V13.2H87.39V.11H90.2l4.19,6.58V.11h3.22V13.2Z"/></g></g></g></svg>